<?xml version="1.0" encoding="UTF-8"?>
<svg version="1.1" xmlns="http://www.w3.org/2000/svg" width="500" height="500">
<path d="M0 0 C0.82193848 0.25620117 1.64387695 0.51240234 2.49072266 0.77636719 C31.34026478 9.88073665 57.39922731 24.14654634 81 43 C81.84135498 43.66781494 81.84135498 43.66781494 82.69970703 44.34912109 C95.39611525 54.51000957 107.26615497 65.95210268 117 79 C117.91781887 80.17951667 118.83721848 81.35780426 119.7578125 82.53515625 C127.28568586 92.25098179 133.84474333 102.36796929 140 113 C140.3604541 113.61101562 140.7209082 114.22203125 141.09228516 114.8515625 C172.52911563 168.49413119 178.32256948 234.82790737 163.125 294.3125 C160.38211239 304.44459016 156.91677499 314.26747428 153 324 C152.60458008 325.00522705 152.60458008 325.00522705 152.20117188 326.03076172 C142.65544477 350.10441561 128.02764438 371.63309457 111 391 C110.39929688 391.7115625 109.79859375 392.423125 109.1796875 393.15625 C100.72985844 403.11643498 91.31861586 412.010099 81 420 C80.43361816 420.44811035 79.86723633 420.8962207 79.28369141 421.35791016 C30.27658763 460.06841314 -34.20992036 479.16308204 -96.4833374 472.38456726 C-148.77804258 466.09600623 -196.63612977 444.4346537 -235.2109375 408.56640625 C-237.53810845 406.42501785 -239.90058615 404.35657371 -242.3125 402.3125 C-246.28359306 398.84387177 -249.63729913 395.05409731 -253 391 C-253.67458252 390.20988525 -253.67458252 390.20988525 -254.36279297 389.40380859 C-274.69449433 365.58366381 -289.63333555 338.51575437 -300 309 C-300.29100586 308.175 -300.58201172 307.35 -300.88183594 306.5 C-307.86131567 286.24388922 -312.03811738 264.08051065 -312.23828125 242.62890625 C-312.24802979 241.7572583 -312.25777832 240.88561035 -312.26782227 239.98754883 C-312.43975944 220.627423 -312.19957208 201.99158712 -308 183 C-307.80744629 182.10394043 -307.61489258 181.20788086 -307.41650391 180.28466797 C-297.88287727 136.83777297 -276.78949026 97.06010917 -246 65 C-245.38382812 64.3512793 -244.76765625 63.70255859 -244.1328125 63.03417969 C-234.15854844 52.57963735 -223.80732362 43.33341463 -212 35 C-211.35820801 34.54544434 -210.71641602 34.09088867 -210.05517578 33.62255859 C-149.95902655 -8.54229953 -70.25435188 -22.39365928 0 0 Z M-205.2734375 111.44921875 C-232.93359423 142.16734955 -248.69972679 181.89132948 -251 223 C-251.03996094 223.69834961 -251.07992187 224.39669922 -251.12109375 225.11621094 C-253.24370321 269.28771375 -236.9054374 314.7122681 -208 348 C-205.94558637 350.18019406 -203.85315529 352.28286227 -201.68359375 354.34765625 C-200 356 -200 356 -197.6875 358.9375 C-193.83766508 363.68264536 -188.77438348 367.24350538 -184 371 C-182.98421875 371.81984375 -181.9684375 372.6396875 -180.921875 373.484375 C-143.37269291 403.48753712 -95.99905141 414.50740224 -48.63720703 410.73193359 C-42.29748366 409.98102315 -36.16430535 408.64014553 -30 407 C-28.97648438 406.73155273 -27.95296875 406.46310547 -26.8984375 406.18652344 C-4.6524976 400.19365836 15.15923087 391.23892535 34 378 C35.08023437 377.2575 36.16046875 376.515 37.2734375 375.75 C74.92728856 348.43435994 100.14907284 305.09607513 107.62548828 259.46728516 C114.67273968 213.03995621 103.63075993 164.4394546 75.96875 126.19140625 C71.94555279 121.07460186 67.60528558 116.236788 63.2109375 111.4375 C61.79514704 109.87662854 60.40197027 108.29475379 59.0390625 106.6875 C53.92109277 100.67127436 48.19401799 95.87669867 42 91 C41.20851563 90.33097656 40.41703125 89.66195312 39.6015625 88.97265625 C-28.94678122 31.46947754 -133.26557197 43.05253672 -205.2734375 111.44921875 Z " fill="#FEDD5A" transform="translate(319,18)"/>
<path d="M0 0 C0.66 0.33 1.32 0.66 2 1 C2.94996824 3.98723703 3.77946399 6.94158173 4.55566406 9.97509766 C4.92789974 11.38973864 4.92789974 11.38973864 5.30765533 12.83295822 C6.13459165 15.98305376 6.95002379 19.13601484 7.765625 22.2890625 C8.3456928 24.50724925 8.92653651 26.72523323 9.50811768 28.94302368 C10.72928045 33.60468303 11.94588426 38.26749784 13.15893555 42.93127441 C14.92397932 49.71451092 16.70282189 56.49405829 18.48632812 63.27246094 C20.77275672 71.96465152 23.05661778 80.65750483 25.3359375 89.3515625 C25.61593849 90.41951931 25.89593948 91.48747612 26.18442535 92.58779526 C27.63331558 98.1144479 29.08184101 103.64119611 30.53027344 109.16796875 C31.97088737 114.66464159 33.41245256 120.16106424 34.85459137 125.65733719 C35.65584164 128.71230628 36.45595702 131.76757114 37.25604248 134.82284546 C37.73931718 136.66495379 38.22265112 138.50704658 38.70605469 140.34912109 C38.92515503 141.18707718 39.14425537 142.02503326 39.36999512 142.88838196 C40.17603096 145.95596635 40.99670499 148.99011498 42 152 C75.99 152 109.98 152 145 152 C145 148.37 145 144.74 145 141 C145.11336107 137.42838365 145.24283051 133.86232716 145.40234375 130.29296875 C145.46537437 128.83942741 145.46537437 128.83942741 145.52967834 127.35652161 C145.61840497 125.32885391 145.7083779 123.30124038 145.79956055 121.27368164 C145.93792122 118.17807579 146.06973841 115.08223493 146.20117188 111.98632812 C146.28866724 110.00519084 146.37654443 108.02407037 146.46484375 106.04296875 C146.50343002 105.12412399 146.5420163 104.20527924 146.58177185 103.2585907 C146.78945086 98.76383296 147.12931863 94.42721655 148 90 C149.32 90 150.64 90 152 90 C152.93312273 100.66120977 153.44467652 111.33353778 153.92993164 122.02270508 C154.06334217 124.95601684 154.20040429 127.88914235 154.33789062 130.82226562 C154.42469352 132.70311512 154.51128953 134.58397418 154.59765625 136.46484375 C154.63826675 137.33366684 154.67887726 138.20248993 154.72071838 139.09764099 C154.7575322 139.91612015 154.79434601 140.7345993 154.83227539 141.57788086 C154.86478897 142.28923691 154.89730255 143.00059296 154.93080139 143.73350525 C155.01489358 146.48781663 155 149.24440521 155 152 C189.32 152 223.64 152 259 152 C259.66 148.37 260.32 144.74 261 141 C261.71792329 138.00545587 262.45831829 135.03648331 263.25561523 132.06420898 C263.47232376 131.24249207 263.68903229 130.42077515 263.91230774 129.57415771 C264.62376095 126.88039981 265.3411613 124.18826475 266.05859375 121.49609375 C266.56785503 119.5722914 267.0767219 117.64838461 267.58522034 115.72438049 C268.92698971 110.65148843 270.27372218 105.5799275 271.62164307 100.50866699 C273.21364489 94.51582285 274.80015685 88.52152389 276.38715553 82.52735329 C277.69504092 77.58779108 279.00409262 72.64854563 280.31600952 67.71005249 C282.96317921 57.73888073 285.58676324 47.76226531 288.16845703 37.77392578 C288.67718652 35.81086072 289.18597947 33.84781211 289.69483948 31.88478088 C290.65347364 28.1860986 291.60477375 24.48563253 292.55210876 20.78404236 C292.9811503 19.12686918 293.41046097 17.46976565 293.84008789 15.81274414 C294.03045938 15.06026209 294.22083088 14.30778004 294.41697121 13.5324955 C295.2784806 10.23336346 296.08862976 7.86705536 298 5 C311.65295684 42.64487848 306.90515931 85.94609902 290.25 121.6875 C285.91859378 130.68230241 280.94379895 138.98577775 275 147 C274.3296875 147.91265625 273.659375 148.8253125 272.96875 149.765625 C258.62642113 168.19000132 241.40837934 181.99618377 221 193 C220.07316406 193.52207031 219.14632812 194.04414063 218.19140625 194.58203125 C208.64104434 199.71619744 198.38233071 202.99627135 188 206 C187.21109375 206.23025879 186.4221875 206.46051758 185.609375 206.69775391 C162.10392319 213.18873645 132.35660573 212.86037341 109 206 C107.60680152 205.62228263 106.21357243 205.24467814 104.8203125 204.8671875 C73.64042479 196.0529016 44.25474221 176.89442563 24.625 151 C24.06409668 150.26088379 23.50319336 149.52176758 22.92529297 148.76025391 C11.17024328 133.02967668 2.46551944 115.88566288 -3 97 C-3.18691406 96.36433105 -3.37382813 95.72866211 -3.56640625 95.07373047 C-7.23323593 82.25585295 -8.28818312 69.27286838 -9 56 C-9.04141113 55.27006836 -9.08282227 54.54013672 -9.12548828 53.78808594 C-10.04835545 35.24726712 -5.48193185 17.54430979 0 0 Z " fill="#FCBD5A" transform="translate(100,196)"/>
<path d="M0 0 C43.48420005 -0.85066905 83.60939425 16.1915263 115.26953125 45.55078125 C119.49417112 49.78830112 123.17259889 54.3954734 126.83203125 59.12109375 C127.5178125 59.97574219 128.20359375 60.83039063 128.91015625 61.7109375 C133.69582636 67.71247908 133.69582636 67.71247908 134.83203125 71.12109375 C111.07203125 71.12109375 87.31203125 71.12109375 62.83203125 71.12109375 C62.83203125 77.72109375 62.83203125 84.32109375 62.83203125 91.12109375 C62.42001081 102.01224053 62.42001081 102.01224053 62.22216797 105.73675537 C62.15736237 106.97416096 62.15736237 106.97416096 62.09124756 108.23656464 C62.04695618 109.08017799 62.00266479 109.92379135 61.95703125 110.79296875 C61.86691332 112.58040201 61.77724159 114.36785783 61.68798828 116.15533447 C61.45566324 120.78475819 61.21741648 125.41385732 60.9777832 130.04290771 C60.7327969 134.79664747 60.4936219 139.55067957 60.25390625 144.3046875 C59.78552169 153.57711204 59.31085858 162.84920301 58.83203125 172.12109375 C57.18203125 172.12109375 55.53203125 172.12109375 53.83203125 172.12109375 C53.78715576 171.25274902 53.74228027 170.3844043 53.69604492 169.48974609 C53.47157022 165.15847449 53.24577051 160.82727349 53.01953125 156.49609375 C52.95575287 155.27256699 52.95575287 155.27256699 52.89068604 154.02432251 C52.29637894 142.64494449 51.67549567 131.2672874 51.03125 119.890625 C50.96312607 118.68329712 50.89500214 117.47596924 50.82481384 116.23205566 C50.41519441 108.97351428 50.41519441 108.97351428 50.00033569 101.715271 C49.80402521 98.30248877 49.61076173 94.88954498 49.41796875 91.4765625 C49.3290461 89.95516411 49.3290461 89.95516411 49.23832703 88.4030304 C49.18465469 87.443983 49.13098236 86.48493561 49.07568359 85.49682617 C49.02842133 84.67212326 48.98115906 83.84742035 48.9324646 82.99772644 C48.79432551 79.04111806 48.83203125 75.08011286 48.83203125 71.12109375 C20.45203125 71.12109375 -7.92796875 71.12109375 -37.16796875 71.12109375 C-37.49796875 79.04109375 -37.82796875 86.96109375 -38.16796875 95.12109375 C-38.48195915 101.51763148 -38.80307211 107.91332538 -39.140625 114.30859375 C-39.2289865 116.00064531 -39.31723564 117.69270275 -39.40538025 119.38476562 C-39.63277424 123.74434151 -39.86164775 128.10383838 -40.09088135 132.46331787 C-40.32649497 136.94945479 -40.56063775 141.43566849 -40.79492188 145.921875 C-41.25120339 154.65502166 -41.70905539 163.388085 -42.16796875 172.12109375 C-43.81796875 172.12109375 -45.46796875 172.12109375 -47.16796875 172.12109375 C-47.82047829 159.24766793 -48.47244942 146.37421497 -49.12372589 133.5007267 C-49.42612982 127.52358289 -49.7287219 121.54644873 -50.03173828 115.56933594 C-50.32395063 109.80520175 -50.61567618 104.04104311 -50.90705872 98.27686691 C-51.01852441 96.07355235 -51.13016797 93.87024678 -51.24198914 91.66695023 C-51.39811974 88.59000188 -51.55362795 85.51302268 -51.70898438 82.43603516 C-51.77911491 81.05823631 -51.77911491 81.05823631 -51.85066223 79.65260315 C-51.892733 78.81685257 -51.93480377 77.98110199 -51.97814941 77.12002563 C-52.03345699 76.02770095 -52.03345699 76.02770095 -52.0898819 74.9133091 C-52.14491699 73.65016773 -52.16796875 72.38543349 -52.16796875 71.12109375 C-76.58796875 71.12109375 -101.00796875 71.12109375 -126.16796875 71.12109375 C-115.5766342 44.64275738 -83.32347263 24.07401054 -58.29296875 12.93359375 C-39.66205275 5.29491819 -20.13299192 0.76957182 0 0 Z " fill="#FCBD5A" transform="translate(244.16796875,91.87890625)"/>
<path d="M0 0 C29.9100589 -0.66746333 58.2412598 0.83311692 87 10 C87.82193848 10.25620117 88.64387695 10.51240234 89.49072266 10.77636719 C118.34026478 19.88073665 144.39922731 34.14654634 168 53 C168.56090332 53.44520996 169.12180664 53.89041992 169.69970703 54.34912109 C179.12616744 61.89308245 187.58547804 70.3573471 196 79 C193.73826345 82.97438099 191.64156681 85.2254729 188 88 C185.22710291 90.63425224 182.70205627 93.33431403 180.3125 96.3125 C179.549375 97.199375 178.78625 98.08625 178 99 C177.34 99 176.68 99 176 99 C175.67 99.99 175.34 100.98 175 102 C173.37897032 103.71108689 171.70496537 105.37253306 170 107 C169.113125 107.928125 168.22625 108.85625 167.3125 109.8125 C165 112 165 112 163 112 C162.7525 112.61875 162.505 113.2375 162.25 113.875 C160.76259631 116.40358627 159.56321991 116.71839004 157 118 C155.73195434 120.0335948 155.73195434 120.0335948 155 122 C152.7890625 122.30859375 152.7890625 122.30859375 150 122 C147.7109375 119.91015625 147.7109375 119.91015625 145.375 117.0625 C140.45004897 111.29095659 134.97980977 106.67496689 129 102 C127.81664062 101.00033203 127.81664062 101.00033203 126.609375 99.98046875 C95.57312215 73.92851478 55.24934865 63.62887245 15.61328125 62.39453125 C14.54464844 62.35714844 13.47601563 62.31976563 12.375 62.28125 C11.41335937 62.25095703 10.45171875 62.22066406 9.4609375 62.18945312 C7 62 7 62 4 61 C4 41.2 4 21.4 4 1 C2.68 0.67 1.36 0.34 0 0 Z " fill="#FEDE5A" transform="translate(232,8)"/>
<path d="M0 0 C0 0.99 0 1.98 0 3 C0.94485476 5.32579633 1.84422555 6.84422555 3.625 8.625 C4.07875 9.07875 4.5325 9.5325 5 10 C5 10.66 5 11.32 5 12 C5.66 12 6.32 12 7 12 C7 12.66 7 13.32 7 14 C7.99 14.33 8.98 14.66 10 15 C11.6875 16.4375 11.6875 16.4375 13 18 C13 18.66 13 19.32 13 20 C13.5775 20.2475 14.155 20.495 14.75 20.75 C17.32939979 22.18299988 19.06121592 23.78424676 21 26 C21 26.66 21 27.32 21 28 C21.5775 28.2475 22.155 28.495 22.75 28.75 C25.32939979 30.18299988 27.06121592 31.78424676 29 34 C29 34.66 29 35.32 29 36 C29.53625 36.20625 30.0725 36.4125 30.625 36.625 C33.91978009 38.53250426 36.59363628 41.04819384 39 44 C39 44.66 39 45.32 39 46 C39.66 46.33 40.32 46.66 41 47 C7.07562724 80.10241659 -38.99582212 99.11045111 -85.1875 106.875 C-86.22620239 107.05542847 -86.22620239 107.05542847 -87.28588867 107.23950195 C-94.32685513 108.31180202 -100.64701585 108 -108 108 C-108 88.2 -108 68.4 -108 48 C-95.17017125 44.79254281 -95.17017125 44.79254281 -89.20727539 43.77319336 C-57.78095499 38.25998172 -22.30758357 23.85136098 0 0 Z " fill="#FDBD59" transform="translate(369,382)"/>
<path d="M0 0 C0 19.8 0 39.6 0 60 C0.99 60.33 1.98 60.66 3 61 C2.41323486 61.06469482 1.82646973 61.12938965 1.22192383 61.19604492 C-36.29563985 65.4391244 -71.6641552 76.58230551 -100.84375 101.43359375 C-102.996313 102.99732158 -104.35745529 103.76683429 -107 104 C-109.25 102.1875 -109.25 102.1875 -111 100 C-111 99.34 -111 98.68 -111 98 C-111.66 98 -112.32 98 -113 98 C-117.76744186 93.69767442 -117.76744186 93.69767442 -119 90 C-119.66 90 -120.32 90 -121 90 C-125.76744186 85.69767442 -125.76744186 85.69767442 -127 82 C-127.66 82 -128.32 82 -129 82 C-133.76744186 77.69767442 -133.76744186 77.69767442 -135 74 C-135.66 74 -136.32 74 -137 74 C-137 73.34 -137 72.68 -137 72 C-138.485 71.505 -138.485 71.505 -140 71 C-140.804375 70.030625 -141.60875 69.06125 -142.4375 68.0625 C-144.67613927 65.38705307 -145.8250163 64.17591989 -149 63 C-151.2773501 65.81509993 -151.2773501 65.81509993 -151 69 C-154.465 69.495 -154.465 69.495 -158 70 C-126.81848416 31.23379112 -71.62601662 9.07970675 -23.9375 1.125 C-23.25010742 1.00495605 -22.56271484 0.88491211 -21.85449219 0.76123047 C-14.44960569 -0.36499463 -7.71786601 0 0 0 Z " fill="#FDBD59" transform="translate(236,9)"/>
<path d="M0 0 C0.33 0.66 0.66 1.32 1 2 C20.47 2 39.94 2 60 2 C63.3655706 9.85299807 63.3655706 9.85299807 63.73828125 13.1015625 C63.83254395 13.82778809 63.92680664 14.55401367 64.02392578 15.30224609 C64.16677002 16.45200928 64.16677002 16.45200928 64.3125 17.625 C68.69040387 48.00824851 81.73317457 75.58241609 100 100 C100.64839844 100.87398438 101.29679687 101.74796875 101.96484375 102.6484375 C103.30028406 104.43949863 104.6481702 106.22127658 106 108 C105.5060675 108.42328583 105.01213501 108.84657166 104.50323486 109.28268433 C99.75916053 113.38525014 95.22346597 117.62884633 90.796875 122.0703125 C90.15179993 122.71443085 89.50672485 123.35854919 88.84210205 124.02218628 C87.49311645 125.37049733 86.14536885 126.72004807 84.79882812 128.07080078 C82.74461745 130.13039666 80.68508383 132.18456174 78.625 134.23828125 C77.3069707 135.55697094 75.98925142 136.87597058 74.671875 138.1953125 C74.0614032 138.80376007 73.4509314 139.41220764 72.82196045 140.03909302 C69.66178468 143.21660804 66.72443627 146.42932459 64 150 C61.37408917 149.9082862 59.57079845 149.50591717 57.578125 147.73974609 C55.97741057 145.93948023 54.47989735 144.08848248 53 142.1875 C52.43676025 141.47537354 51.87352051 140.76324707 51.29321289 140.02954102 C34.14951221 117.95294938 21.24834111 93.33168709 12 67 C11.56349121 65.7625 11.56349121 65.7625 11.11816406 64.5 C4.66696793 45.7770939 -0.34279186 24.33822197 -0.0625 4.4375 C-0.05347656 3.59058594 -0.04445313 2.74367188 -0.03515625 1.87109375 C-0.02355469 1.25363281 -0.01195312 0.63617188 0 0 Z " fill="#FDBC59" transform="translate(7,260)"/>
<path d="M0 0 C4.65168062 3.32754233 7.79389586 7.28515929 11.1875 11.8125 C11.75702393 12.56732666 12.32654785 13.32215332 12.91333008 14.09985352 C41.85683398 52.7898462 62 100.09172318 62 149 C42.2 149 22.4 149 2 149 C2 150.98 2 152.96 2 155 C1.67 155 1.34 155 1 155 C0.93530518 154.35264893 0.87061035 153.70529785 0.80395508 153.03833008 C-2.96289682 116.36891605 -13.10226913 79.98868612 -37.203125 51.1640625 C-39.64524181 48.22290443 -41.81774871 45.13698623 -44 42 C-43.278125 41.773125 -42.55625 41.54625 -41.8125 41.3125 C-37.35206364 39.23096303 -34.69789496 36.04684244 -32 32 C-31.34 32 -30.68 32 -30 32 C-29.773125 31.443125 -29.54625 30.88625 -29.3125 30.3125 C-27.6296426 27.34746553 -25.46378626 25.34646311 -23 23 C-22.278125 22.236875 -21.55625 21.47375 -20.8125 20.6875 C-19 19 -19 19 -17 19 C-16.67 18.01 -16.34 17.02 -16 16 C-15.34 16 -14.68 16 -14 16 C-13.773125 15.443125 -13.54625 14.88625 -13.3125 14.3125 C-10.96743859 10.18072514 -7.38876052 7.28648696 -3.75 4.3125 C-0.98257806 2.2957678 -0.98257806 2.2957678 0 0 Z " fill="#FDBD59" transform="translate(427,88)"/>
<path d="M0 0 C0.33 0 0.66 0 1 0 C1 10.56 1 21.12 1 32 C0.34 31.01 -0.32 30.02 -1 29 C-3.25579898 28.52376333 -3.25579898 28.52376333 -5.90869141 28.56762695 C-7.44005234 28.53793571 -7.44005234 28.53793571 -9.00234985 28.50764465 C-10.10759003 28.50125473 -11.2128302 28.49486481 -12.3515625 28.48828125 C-13.4807309 28.47033005 -14.60989929 28.45237885 -15.77328491 28.43388367 C-19.39048493 28.37957112 -23.00755146 28.34581734 -26.625 28.3125 C-29.07293533 28.27934548 -31.520853 28.2448576 -33.96875 28.20898438 C-39.97904695 28.12383274 -45.98936075 28.05557192 -52 28 C-52 27.67 -52 27.34 -52 27 C-51.10464035 26.9845388 -51.10464035 26.9845388 -50.19119263 26.96876526 C-43.99469771 26.86082612 -37.79835193 26.74621812 -31.60205078 26.62768555 C-29.28762931 26.58429624 -26.973175 26.54262416 -24.65869141 26.50268555 C-21.33746427 26.44507968 -18.01640308 26.38135749 -14.6953125 26.31640625 C-13.65569366 26.29969376 -12.61607483 26.28298126 -11.54495239 26.26576233 C-10.10368484 26.2358445 -10.10368484 26.2358445 -8.63330078 26.20532227 C-7.36089035 26.18200584 -7.36089035 26.18200584 -6.06277466 26.15821838 C-3.93681695 26.12570042 -3.93681695 26.12570042 -2 25 C-1.90912109 23.04707031 -1.90912109 23.04707031 -1.81640625 21.0546875 C-1.73195438 19.32811601 -1.64730874 17.601554 -1.5625 15.875 C-1.52318359 15.0190625 -1.48386719 14.163125 -1.44335938 13.28125 C-1.21843598 8.78278208 -0.86459117 4.43193793 0 0 Z " fill="#F9D867" transform="translate(68,234)"/>
<path d="M0 0 C0.33 0 0.66 0 1 0 C1.16494885 10.3734499 0.65043638 20.6510926 0 31 C-1.65 31 -3.3 31 -5 31 C-5 26.38 -5 21.76 -5 17 C-4.34 17.33 -3.68 17.66 -3 18 C-3 21.63 -3 25.26 -3 29 C-2.34 29 -1.68 29 -1 29 C-1.00523682 28.15703369 -1.01047363 27.31406738 -1.01586914 26.44555664 C-1.03287826 23.32772064 -1.04543406 20.20990823 -1.05493164 17.09204102 C-1.05997057 15.74079614 -1.06680177 14.38955674 -1.07543945 13.03833008 C-1.08752419 11.09979566 -1.09269828 9.161222 -1.09765625 7.22265625 C-1.10289307 6.05484619 -1.10812988 4.88703613 -1.11352539 3.68383789 C-1 1 -1 1 0 0 Z " fill="#F2BF6F" transform="translate(202,233)"/>
<path d="M0 0 C0.33 0 0.66 0 1 0 C1.33 3.3 1.66 6.6 2 10 C-0.70879335 11.35439668 -3.00933268 11.06501451 -6 11 C-6 12.98 -6 14.96 -6 17 C-6.33 17 -6.66 17 -7 17 C-7.33 13.37 -7.66 9.74 -8 6 C-6.865625 5.566875 -5.73125 5.13375 -4.5625 4.6875 C-2.7990625 3.8521875 -2.7990625 3.8521875 -1 3 C-0.67 2.01 -0.34 1.02 0 0 Z " fill="#FBC351" transform="translate(253,331)"/>
<path d="M0 0 C16.83 0 33.66 0 51 0 C51.495 1.98 51.495 1.98 52 4 C50.68 3.67 49.36 3.34 48 3 C48 2.34 48 1.68 48 1 C32.16 1 16.32 1 0 1 C0 0.67 0 0.34 0 0 Z " fill="#F6C052" transform="translate(16,262)"/>
<path d="M0 0 C2.04717052 3.07075579 2.47357265 4.69566264 3.0703125 8.26171875 C3.24433594 9.29876953 3.41835938 10.33582031 3.59765625 11.40429688 C3.77167969 12.48775391 3.94570313 13.57121094 4.125 14.6875 C4.30675781 15.75162109 4.48851562 16.81574219 4.67578125 17.91210938 C5.62482297 23.68841972 6.21229653 29.14769221 6 35 C5.34 34.67 4.68 34.34 4 34 C4 29.38 4 24.76 4 20 C3.34 20 2.68 20 2 20 C1.01857619 15.75266168 0.69079621 11.52675467 0.4375 7.1875 C0.39431641 6.49462891 0.35113281 5.80175781 0.30664062 5.08789062 C0.20138547 3.39211314 0.10027137 1.69607948 0 0 Z " fill="#F1BC69" transform="translate(399,207)"/>
<path d="M0 0 C0.66 0.33 1.32 0.66 2 1 C1.67 1.66 1.34 2.32 1 3 C0.34 3 -0.32 3 -1 3 C-1 3.66 -1 4.32 -1 5 C-1.99 5 -2.98 5 -4 5 C-4 6.98 -4 8.96 -4 11 C-5.32 10.67 -6.64 10.34 -8 10 C-10.2773501 12.81509993 -10.2773501 12.81509993 -10 16 C-12.31 16.33 -14.62 16.66 -17 17 C-11.90499173 10.6656654 -6.07469335 5.37210426 0 0 Z " fill="#F6C46B" transform="translate(95,62)"/>
<path d="M0 0 C2 1 2 1 2.88671875 3.3984375 C3.15097656 4.38070312 3.41523437 5.36296875 3.6875 6.375 C3.95949219 7.35210937 4.23148437 8.32921875 4.51171875 9.3359375 C5 12 5 12 4 15 C3.01 13.02 2.02 11.04 1 9 C-0.32 10.32 -1.64 11.64 -3 13 C-2.45144652 8.428721 -1.58255197 4.32564205 0 0 Z " fill="#F4C06C" transform="translate(100,196)"/>
<path d="M0 0 C1.32 0 2.64 0 4 0 C4.33 3.3 4.66 6.6 5 10 C3.02 10 1.04 10 -1 10 C-0.67 6.7 -0.34 3.4 0 0 Z " fill="#F9C879" transform="translate(248,286)"/>
<path d="M0 0 C0.66 0 1.32 0 2 0 C1.86722656 0.85722656 1.73445313 1.71445313 1.59765625 2.59765625 C0.70230552 8.39456209 -0.18938564 14.19059708 -1 20 C-1.33 20 -1.66 20 -2 20 C-2.1953125 18.01432292 -2.390625 16.02864583 -2.5859375 14.04296875 C-2.92665391 11.70011858 -2.92665391 11.70011858 -5 9 C-4.54625 8.2575 -4.0925 7.515 -3.625 6.75 C-2.31359204 4.53069422 -1.11719197 2.32032178 0 0 Z " fill="#F7DA69" transform="translate(71,208)"/>
<path d="M0 0 C0.66 0.33 1.32 0.66 2 1 C-0.31 6.61 -2.62 12.22 -5 18 C-5.66 18 -6.32 18 -7 18 C-6.29666462 15.02277453 -5.41751463 12.14743457 -4.4375 9.25 C-4.03337891 8.05117188 -4.03337891 8.05117188 -3.62109375 6.828125 C-3.41613281 6.22484375 -3.21117187 5.6215625 -3 5 C-2.34 5 -1.68 5 -1 5 C-0.67 3.35 -0.34 1.7 0 0 Z " fill="#F4DC7D" transform="translate(474,331)"/>
<path d="M0 0 C2.02225194 3.0333779 2.99347524 5.61344489 4.125 9.0625 C4.47820312 10.12597656 4.83140625 11.18945312 5.1953125 12.28515625 C6 15 6 15 6 17 C5.34 17 4.68 17 4 17 C3.71125 16.195625 3.4225 15.39125 3.125 14.5625 C2.26737432 11.8673532 2.26737432 11.8673532 0 11 C-1.56357343 7.30428099 -0.66537975 3.84441631 0 0 Z " fill="#F3BC69" transform="translate(475,168)"/>
<path d="M0 0 C0.33 0.66 0.66 1.32 1 2 C1.66 2.33 2.32 2.66 3 3 C4.678298 4.31866272 6.34614767 5.65080468 8 7 C7.67 7.66 7.34 8.32 7 9 C2.71 6.69 -1.58 4.38 -6 2 C-3.99967627 0.99983813 -2.16874252 0.50603992 0 0 Z " fill="#F8C06F" transform="translate(178,385)"/>
<path d="M0 0 C0.7425 0.2475 1.485 0.495 2.25 0.75 C-0.55804268 3.71404505 -2.93315774 6.19499019 -6.75 7.75 C-6.75 3.75 -6.75 3.75 -5.0625 1.4375 C-2.75 -0.25 -2.75 -0.25 0 0 Z " fill="#F8C06A" transform="translate(141.75,101.25)"/>
<path d="M0 0 C2.97 0.33 5.94 0.66 9 1 C4.86687528 4.24745514 2.36067372 6 -3 6 C-3 5.34 -3 4.68 -3 4 C-2.34 4 -1.68 4 -1 4 C-0.67 2.68 -0.34 1.36 0 0 Z M2 1 C1.67 1.66 1.34 2.32 1 3 C1.66 3 2.32 3 3 3 C2.67 2.34 2.34 1.68 2 1 Z " fill="#F4BD62" transform="translate(355,460)"/>
<path d="M0 0 C1.84765625 0.33984375 1.84765625 0.33984375 4.0625 0.9375 C5.16271484 1.22947266 5.16271484 1.22947266 6.28515625 1.52734375 C7.13400391 1.76130859 7.13400391 1.76130859 8 2 C6.35 3.98 4.7 5.96 3 8 C2.71125 7.401875 2.4225 6.80375 2.125 6.1875 C0.95257974 3.80672208 0.95257974 3.80672208 -1 1 C-0.67 0.67 -0.34 0.34 0 0 Z " fill="#F8BF66" transform="translate(402,426)"/>
<path d="M0 0 C0 3.90838866 -1.50567876 5.11594107 -4 8 C-6.97 7.505 -6.97 7.505 -10 7 C-6.80331012 4.3513141 -3.60513403 2.06007659 0 0 Z " fill="#F7C171" transform="translate(175,110)"/>
<path d="M0 0 C1.65 0.33 3.3 0.66 5 1 C1.89579356 3.06947096 -1.0318675 4.32446144 -4.5 5.6875 C-5.6446875 6.14511719 -6.789375 6.60273437 -7.96875 7.07421875 C-11 8 -11 8 -14 7 C-13.34 7 -12.68 7 -12 7 C-12 6.34 -12 5.68 -12 5 C-8.04 4.01 -4.08 3.02 0 2 C0 1.34 0 0.68 0 0 Z " fill="#F1C075" transform="translate(190,76)"/>
<path d="M0 0 C4.96916636 0.51405169 9.29026351 1.23384882 14 3 C10.94736336 3.98120464 9.05263664 3.98120464 6 3 C5.67 3.99 5.34 4.98 5 6 C3.68 6 2.36 6 1 6 C1 4 1 4 2.5 2.375 C2.995 1.92125 3.49 1.4675 4 1 C2.68 0.67 1.36 0.34 0 0 Z " fill="#F6DF79" transform="translate(183,418)"/>
<path d="M0 0 C0.99 0.66 1.98 1.32 3 2 C2.67 2.33 2.34 2.66 2 3 C1.71898054 5.31952569 1.55217375 7.63885514 1.37890625 9.96875 C1.25386719 10.6390625 1.12882813 11.309375 1 12 C0.01 12.495 0.01 12.495 -1 13 C-1 9.7 -1 6.4 -1 3 C-1.66 3 -2.32 3 -3 3 C-3 2.34 -3 1.68 -3 1 C-2.01 0.67 -1.02 0.34 0 0 Z " fill="#FCC34E" transform="translate(250,295)"/>
<path d="M0 0 C1.65 0 3.3 0 5 0 C1.33997803 3.05001831 -4.07851471 7 -9 7 C-9.33 5.68 -9.66 4.36 -10 3 C-7.03 3.495 -7.03 3.495 -4 4 C-4 3.34 -4 2.68 -4 2 C-2.68 2 -1.36 2 0 2 C0 1.34 0 0.68 0 0 Z " fill="#F2BB69" transform="translate(169,85)"/>
<path d="M0 0 C0.78375 0.598125 1.5675 1.19625 2.375 1.8125 C6.53346103 4.62146046 11.19111372 5.74550793 16 7 C11.83326479 8.79341438 8.25336659 7.01173384 4.25 5.5625 C3.55261719 5.31951172 2.85523438 5.07652344 2.13671875 4.82617188 C0.42114902 4.22689752 -1.28989715 3.61470115 -3 3 C-2.01 2.01 -1.02 1.02 0 0 Z " fill="#F4D370" transform="translate(169,474)"/>
<path d="M0 0 C0.33 0.66 0.66 1.32 1 2 C-4.96583144 11.59453303 -4.96583144 11.59453303 -10 15 C-8.59601721 10.89889238 -6.62912962 8.01910841 -3.875 4.6875 C-3.15054687 3.80449219 -2.42609375 2.92148437 -1.6796875 2.01171875 C-1.12539063 1.34785156 -0.57109375 0.68398438 0 0 Z " fill="#F5DC66" transform="translate(397,350)"/>
<path d="M0 0 C0.66 0.33 1.32 0.66 2 1 C2.35412344 2.32796291 2.68521554 3.66216607 3 5 C3.99 6.485 3.99 6.485 5 8 C4.125 10.6875 4.125 10.6875 3 13 C1.24905885 10.37358828 0.54725362 8.89308789 -0.1875 5.9375 C-0.36667969 5.24527344 -0.54585937 4.55304688 -0.73046875 3.83984375 C-1 2 -1 2 0 0 Z " fill="#F7BC67" transform="translate(18,317)"/>
<path d="M0 0 C2.375 0.3125 2.375 0.3125 5 1 C5.66 1.99 6.32 2.98 7 4 C5.02 4.99 3.04 5.98 1 7 C-1 4 -1 4 -0.625 1.8125 C-0.41875 1.214375 -0.2125 0.61625 0 0 Z " fill="#FBC36E" transform="translate(354,136)"/>
<path d="M0 0 C2.31 0.33 4.62 0.66 7 1 C7.33 2.32 7.66 3.64 8 5 C7.34 5 6.68 5 6 5 C5.67 5.66 5.34 6.32 5 7 C3.35 4.69 1.7 2.38 0 0 Z " fill="#F6BA64" transform="translate(389,137)"/>
<path d="M0 0 C0.33 0.66 0.66 1.32 1 2 C-0.47169811 5.73584906 -0.47169811 5.73584906 -3 7 C-3.65772428 10.02934491 -3.65772428 10.02934491 -4 13 C-4.66 13 -5.32 13 -6 13 C-6 12.34 -6 11.68 -6 11 C-6.66 10.67 -7.32 10.34 -8 10 C-5.36 6.7 -2.72 3.4 0 0 Z " fill="#F6DF76" transform="translate(66,90)"/>
<path d="M0 0 C1.6274637 0.61855631 3.25190356 1.24507305 4.875 1.875 C5.77992188 2.22304688 6.68484375 2.57109375 7.6171875 2.9296875 C10 4 10 4 12 6 C4.25 6.125 4.25 6.125 2 5 C2 4.34 2 3.68 2 3 C1.34 2.67 0.68 2.34 0 2 C0 1.34 0 0.68 0 0 Z " fill="#F9E180" transform="translate(351,31)"/>
<path d="M0 0 C0 2.66666667 0 5.33333333 0 8 C-3 8 -6 8 -9 8 C-6.03 5.36 -3.06 2.72 0 0 Z " fill="#F2C365" transform="translate(369,382)"/>
<path d="M0 0 C2.475 0.495 2.475 0.495 5 1 C5 2.32 5 3.64 5 5 C4.34 5 3.68 5 3 5 C3.33 7.31 3.66 9.62 4 12 C1.57869669 9.57869669 1.47159496 8.19888623 0.875 4.875 C0.70742187 3.96492188 0.53984375 3.05484375 0.3671875 2.1171875 C0.24601562 1.41851562 0.12484375 0.71984375 0 0 Z " fill="#F7BF6C" transform="translate(97,290)"/>
<path d="M0 0 C0 6 0 6 -1 8 C-3.32156597 8.40729228 -5.6568787 8.74438677 -8 9 C-7.04270084 7.87411986 -6.08412105 6.7493285 -5.125 5.625 C-4.59132813 4.99851562 -4.05765625 4.37203125 -3.5078125 3.7265625 C-2.38567993 2.44163349 -1.20628025 1.20628025 0 0 Z " fill="#F4D769" transform="translate(86,70)"/>
<path d="M0 0 C0.66 0.33 1.32 0.66 2 1 C0.35 4.63 -1.3 8.26 -3 12 C-3.33 12 -3.66 12 -4 12 C-4 9.36 -4 6.72 -4 4 C-2.68 3.34 -1.36 2.68 0 2 C0 1.34 0 0.68 0 0 Z " fill="#F5D967" transform="translate(85,170)"/>
<path d="M0 0 C1.98 0.66 3.96 1.32 6 2 C3.6870518 4.3129482 2.52095125 4.49580975 -0.625 5.125 C-1.44226563 5.29257812 -2.25953125 5.46015625 -3.1015625 5.6328125 C-4.04128906 5.81457031 -4.04128906 5.81457031 -5 6 C-4.34 5.01 -3.68 4.02 -3 3 C-2.34 3 -1.68 3 -1 3 C-0.67 2.01 -0.34 1.02 0 0 Z " fill="#F6C06C" transform="translate(300,393)"/>
<path d="M0 0 C1.140625 3.6875 1.140625 3.6875 -0.125 6.5 C-2.14578128 9.19437503 -4.28793233 11.02092359 -7 13 C-5.35821735 8.22390502 -2.73453298 4.20617096 0 0 Z " fill="#F4E079" transform="translate(405,337)"/>
<path d="M0 0 C0.66 0.33 1.32 0.66 2 1 C-0.97 4.96 -0.97 4.96 -4 9 C-4.99 8.01 -5.98 7.02 -7 6 C-6.34 5.34 -5.68 4.68 -5 4 C-4.01 4 -3.02 4 -2 4 C-2 3.34 -2 2.68 -2 2 C-1.34 2 -0.68 2 0 2 C0 1.34 0 0.68 0 0 Z " fill="#F6BE68" transform="translate(377,336)"/>
<path d="M0 0 C4.14162914 0.46018102 6.24817824 0.85506085 9 4 C9.99 4.33 10.98 4.66 12 5 C12.33 5.99 12.66 6.98 13 8 C8.27626146 6.37621488 4.05818166 3.89006982 0 1 C0 0.67 0 0.34 0 0 Z " fill="#EDBE6C" transform="translate(154,375)"/>
<path d="M0 0 C0 3.26229641 -0.21770324 4.32655486 -2 7 C-5.125 9.25 -5.125 9.25 -8 11 C-8.66 10.67 -9.32 10.34 -10 10 C-6.7 6.7 -3.4 3.4 0 0 Z " fill="#F2D86E" transform="translate(77,79)"/>
<path d="M0 0 C1.65 0.33 3.3 0.66 5 1 C2.525 4.465 2.525 4.465 0 8 C-0.66 6.68 -1.32 5.36 -2 4 C-1.34 4 -0.68 4 0 4 C0 2.68 0 1.36 0 0 Z " fill="#F9DD74" transform="translate(428,404)"/>
<path d="M0 0 C0.66 0 1.32 0 2 0 C2 0.66 2 1.32 2 2 C2.99 2 3.98 2 5 2 C5.33 1.34 5.66 0.68 6 0 C7.25541557 3.76624671 6.37061958 5.37188934 5 9 C2.67527795 6.14693203 1.2491742 3.45925163 0 0 Z " fill="#F4BE68" transform="translate(30,353)"/>
<path d="M0 0 C2.61724095 2.36797991 4.32861729 4.89600354 6 8 C6 8.66 6 9.32 6 10 C5.01 10.33 4.02 10.66 3 11 C0.87953208 7.46588679 0.46800711 4.05606165 0 0 Z " fill="#F1BF6C" transform="translate(90,336)"/>
<path d="M0 0 C1.5994614 3.19892281 2.42595236 5.35462576 3.125 8.75 C3.29257813 9.54921875 3.46015625 10.3484375 3.6328125 11.171875 C3.81457031 12.07679688 3.81457031 12.07679688 4 13 C3.34 12.67 2.68 12.34 2 12 C2 11.34 2 10.68 2 10 C1.01 9.67 0.02 9.34 -1 9 C-0.67 6.03 -0.34 3.06 0 0 Z " fill="#F2BC67" transform="translate(73,292)"/>
<path d="M0 0 C0.66 0 1.32 0 2 0 C2.24061997 4.09053942 1.52018696 7.19953261 0 11 C-0.66 11.66 -1.32 12.32 -2 13 C-1.48041715 8.62065881 -0.94324258 4.31196609 0 0 Z " fill="#FAD76B" transform="translate(425,282)"/>
<path d="M0 0 C1.32 1.32 2.64 2.64 4 4 C4.66 3.34 5.32 2.68 6 2 C6.66 3.32 7.32 4.64 8 6 C7.34 6.66 6.68 7.32 6 8 C5.01 8 4.02 8 3 8 C1.0549 5.08235 0.54723683 3.37462715 0 0 Z " fill="#F6C06A" transform="translate(416,183)"/>
<path d="M0 0 C0.66 0 1.32 0 2 0 C2 0.66 2 1.32 2 2 C3.65 2.33 5.3 2.66 7 3 C5.68 4.65 4.36 6.3 3 8 C0 2.25 0 2.25 0 0 Z " fill="#F9DF6C" transform="translate(434,392)"/>
<path d="M0 0 C2 3 2 3 2 6 C-1 8.1875 -1 8.1875 -4 10 C-2.8905928 6.51329166 -1.73662334 3.22515763 0 0 Z " fill="#F7DF68" transform="translate(410,327)"/>
<path d="M0 0 C3.96 0.33 7.92 0.66 12 1 C12 1.33 12 1.66 12 2 C8.37 2.33 4.74 2.66 1 3 C0.67 2.01 0.34 1.02 0 0 Z " fill="#F8DA79" transform="translate(218,427)"/>
<path d="M0 0 C1.98 1.65 3.96 3.3 6 5 C5.34 5.66 4.68 6.32 4 7 C3.67 6.01 3.34 5.02 3 4 C2.34 4 1.68 4 1 4 C1 4.66 1 5.32 1 6 C0.34 6 -0.32 6 -1 6 C-0.67 4.02 -0.34 2.04 0 0 Z " fill="#FDE574" transform="translate(114,369)"/>
<path d="M0 0 C1.98 0 3.96 0 6 0 C4.35 1.98 2.7 3.96 1 6 C-0.0625 4.125 -0.0625 4.125 -1 2 C-0.67 1.34 -0.34 0.68 0 0 Z " fill="#F3BC65" transform="translate(361,352)"/>
<path d="M0 0 C0 1.65 0 3.3 0 5 C-0.99 5 -1.98 5 -3 5 C-4.6875 3 -4.6875 3 -6 1 C-3 0 -3 0 0 0 Z " fill="#F7BF6D" transform="translate(132,347)"/>
<path d="M0 0 C0.99 0.33 1.98 0.66 3 1 C1.68 2.65 0.36 4.3 -1 6 C-1.99 5.67 -2.98 5.34 -4 5 C-4 4.34 -4 3.68 -4 3 C-3.01 3 -2.02 3 -1 3 C-0.67 2.01 -0.34 1.02 0 0 Z " fill="#F4C069" transform="translate(400,433)"/>
<path d="M0 0 C0.66 0.33 1.32 0.66 2 1 C1.4375 2.9375 1.4375 2.9375 0 5 C-3.625 5.75 -3.625 5.75 -7 6 C-4.74259377 3.66475218 -2.7194239 1.81294927 0 0 Z " fill="#EFBB60" transform="translate(350,397)"/>
<path d="M0 0 C1.65 0.33 3.3 0.66 5 1 C4.01 2.98 3.02 4.96 2 7 C1.896875 6.360625 1.79375 5.72125 1.6875 5.0625 C1.460625 4.381875 1.23375 3.70125 1 3 C0.01 2.67 -0.98 2.34 -2 2 C-1.34 2 -0.68 2 0 2 C0 1.34 0 0.68 0 0 Z " fill="#F2BF64" transform="translate(378,329)"/>
<path d="M0 0 C1.65 1.65 3.3 3.3 5 5 C4.34 5 3.68 5 3 5 C3 5.66 3 6.32 3 7 C2.01 7.33 1.02 7.66 0 8 C0 5.36 0 2.72 0 0 Z " fill="#F8C16B" transform="translate(369,150)"/>
<path d="M0 0 C0.33 0.66 0.66 1.32 1 2 C-0.4375 4.625 -0.4375 4.625 -2 7 C-3.32 6.34 -4.64 5.68 -6 5 C-4.02 3.35 -2.04 1.7 0 0 Z " fill="#F4BF6E" transform="translate(358,391)"/>
<path d="M0 0 C0.33 0.66 0.66 1.32 1 2 C1.66 2.33 2.32 2.66 3 3 C1.515 5.475 1.515 5.475 0 8 C-1.125 6.25 -1.125 6.25 -2 4 C-1.125 1.75 -1.125 1.75 0 0 Z " fill="#F9DB6F" transform="translate(452,372)"/>
<path d="M0 0 C0.33 0 0.66 0 1 0 C1.33 3.3 1.66 6.6 2 10 C1.01 9.67 0.02 9.34 -1 9 C-0.67 6.03 -0.34 3.06 0 0 Z " fill="#FACE57" transform="translate(253,331)"/>
<path d="M0 0 C2.31 1.98 4.62 3.96 7 6 C6.01 6.33 5.02 6.66 4 7 C4 6.34 4 5.68 4 5 C2.68 4.67 1.36 4.34 0 4 C0 2.68 0 1.36 0 0 Z " fill="#EDBF77" transform="translate(348,128)"/>
<path d="M0 0 C0.99 0.33 1.98 0.66 3 1 C1.69593116 3.01920337 0.36176581 5.01924973 -1 7 C-1.33 7 -1.66 7 -2 7 C-2 5.02 -2 3.04 -2 1 C-1.34 0.67 -0.68 0.34 0 0 Z " fill="#F6DD76" transform="translate(116,123)"/>
<path d="M0 0 C1.0625 1.8125 1.0625 1.8125 2 4 C1.67 4.99 1.34 5.98 1 7 C-0.98 5.35 -2.96 3.7 -5 2 C-4.01 2 -3.02 2 -2 2 C-1.34 1.34 -0.68 0.68 0 0 Z " fill="#F6DD74" transform="translate(365,107)"/>
<path d="M0 0 C0.33 1.32 0.66 2.64 1 4 C-0.65 4.66 -2.3 5.32 -4 6 C-3.6875 4.125 -3.6875 4.125 -3 2 C-2.01 1.34 -1.02 0.68 0 0 Z " fill="#F4C072" transform="translate(116,47)"/>
<path d="M0 0 C-0.99 0.495 -0.99 0.495 -2 1 C-2.33 1.99 -2.66 2.98 -3 4 C-4.65 4 -6.3 4 -8 4 C-8 3.34 -8 2.68 -8 2 C-3.61016949 -1.20338983 -3.61016949 -1.20338983 0 0 Z " fill="#F5C375" transform="translate(128,42)"/>
<path d="M0 0 C2.9375 0.75 2.9375 0.75 6 2 C6.875 4.125 6.875 4.125 7 6 C1.125 2.25 1.125 2.25 0 0 Z " fill="#F7DF88" transform="translate(74,417)"/>
<path d="M0 0 C3.14624993 -0.26218749 4.61837017 -0.24754367 7.3125 1.5 C8.1478125 2.2425 8.1478125 2.2425 9 3 C8.67 3.66 8.34 4.32 8 5 C5.36 3.68 2.72 2.36 0 1 C0 0.67 0 0.34 0 0 Z " fill="#F3C580" transform="translate(177,389)"/>
<path d="M0 0 C0.99 0.33 1.98 0.66 3 1 C1.35 2.65 -0.3 4.3 -2 6 C-2 4.35 -2 2.7 -2 1 C-1.34 0.67 -0.68 0.34 0 0 Z " fill="#F3BF67" transform="translate(354,361)"/>
<path d="M0 0 C0.99 0 1.98 0 3 0 C3 0.66 3 1.32 3 2 C3.66 2.33 4.32 2.66 5 3 C4.67 3.99 4.34 4.98 4 6 C3.34 6 2.68 6 2 6 C2 5.01 2 4.02 2 3 C1.34 3 0.68 3 0 3 C0 2.01 0 1.02 0 0 Z " fill="#FBE14C" transform="translate(474,320)"/>
<path d="M0 0 C2.12046792 3.53411321 2.53199289 6.94393835 3 11 C0.9375 8.875 0.9375 8.875 -1 6 C-0.75 2.6875 -0.75 2.6875 0 0 Z " fill="#F1B767" transform="translate(102,200)"/>
<path d="M0 0 C0.66 0.33 1.32 0.66 2 1 C0.7260411 3.03833424 -0.61061923 5.03852126 -2 7 C-2.66 7 -3.32 7 -4 7 C-4 6.34 -4 5.68 -4 5 C-3.34 5 -2.68 5 -2 5 C-2.33 3.68 -2.66 2.36 -3 1 C-2.01 0.67 -1.02 0.34 0 0 Z " fill="#F8DC76" transform="translate(101,143)"/>
</svg>
